<svg id="Camada_1" data-name="Camada 1" xmlns="http://www.w3.org/2000/svg" viewBox="0 0 459.39 363.02"><defs><style>.cls-1{fill:#9821bf;}.cls-2{fill:#fff;}</style></defs><title>Prancheta 2</title><polygon class="cls-1" points="37.35 16.84 0 361.02 426.15 314.4 460.27 0 37.35 16.84"/><path class="cls-2" d="M80,190.52v9.09H60.35v12.94H78.83v9.09H60.35V245.5H49.26v-55Z"/><path class="cls-2" d="M105.16,190.52l14.55,55H108.16l-2.54-11.63H91L88.45,245.5H76.9l14.55-55Zm-1.46,34.27-5.31-24.72h-.15l-5.31,24.72Z"/><path class="cls-2" d="M133.42,231.18h.23l8.16-40.66h11.47l-12.63,55H126.41l-12.63-55h11.86Z"/><path class="cls-2" d="M188.09,199.61H168.46v12.94h18.48v9.09H168.46v14.78h20.4v9.09H157.37v-55h30.72Z"/><path class="cls-2" d="M194.4,190.52h11.09v45.89h19.63v9.09H194.4Z"/><path class="cls-2" d="M259.08,190.52l14.55,55H262.09l-2.54-11.63H244.91l-2.54,11.63H230.82l14.55-55Zm-1.46,34.27-5.31-24.72h-.15l-5.31,24.72Z"/><path class="cls-2" d="M296.2,190.52a19.83,19.83,0,0,1,9.32,1.89A13.43,13.43,0,0,1,311,197.8a24,24,0,0,1,2.66,8.43,79.55,79.55,0,0,1,.69,11,78.17,78.17,0,0,1-.89,12.59,24.07,24.07,0,0,1-3,8.82,13.34,13.34,0,0,1-5.77,5.16,21.63,21.63,0,0,1-9.16,1.69H278v-55ZM294,237.34a9.51,9.51,0,0,0,4.7-1,6.86,6.86,0,0,0,2.81-3.31,19.37,19.37,0,0,0,1.39-6.08q.35-3.77.35-9.39,0-4.69-.31-8.24a20.36,20.36,0,0,0-1.27-5.89,7.34,7.34,0,0,0-2.85-3.54,9.34,9.34,0,0,0-5-1.19h-4.7v38.65Z"/><path class="cls-2" d="M318,206.5a25.52,25.52,0,0,1,2.54-9,14.23,14.23,0,0,1,5.66-5.89q3.7-2.12,9.93-2.12t9.93,2.12a14.23,14.23,0,0,1,5.66,5.89,25.5,25.5,0,0,1,2.54,9,115.28,115.28,0,0,1,0,23.06,25.43,25.43,0,0,1-2.54,9,13.5,13.5,0,0,1-5.66,5.77q-3.7,2-9.93,2t-9.93-2a13.5,13.5,0,0,1-5.66-5.77,25.45,25.45,0,0,1-2.54-9,115.47,115.47,0,0,1,0-23.06Zm10.78,20.94a26.14,26.14,0,0,0,1.08,6.31,7,7,0,0,0,2.31,3.54,7.6,7.6,0,0,0,7.93,0,7,7,0,0,0,2.31-3.54,26.24,26.24,0,0,0,1.08-6.31q.27-3.89.27-9.43t-.27-9.39a26.72,26.72,0,0,0-1.08-6.31,7,7,0,0,0-2.31-3.58,7.6,7.6,0,0,0-7.93,0,7,7,0,0,0-2.31,3.58,26.63,26.63,0,0,0-1.08,6.31q-.27,3.85-.27,9.39T328.81,227.45Z"/><path class="cls-2" d="M370.35,229.95a18.27,18.27,0,0,0,.31,3.5,6.11,6.11,0,0,0,1.16,2.66,5.68,5.68,0,0,0,2.27,1.69,9,9,0,0,0,3.58.62,7.08,7.08,0,0,0,4.58-1.66,6.21,6.21,0,0,0,2-5.12,9.2,9.2,0,0,0-.5-3.2,6.34,6.34,0,0,0-1.66-2.43,11.81,11.81,0,0,0-3-2,43.85,43.85,0,0,0-4.66-1.81,39.81,39.81,0,0,1-6.39-2.7,17.18,17.18,0,0,1-4.5-3.43,12.25,12.25,0,0,1-2.66-4.54,19.1,19.1,0,0,1-.85-6q0-8.16,4.54-12.17t12.47-4a27.11,27.11,0,0,1,6.81.81,14.31,14.31,0,0,1,5.39,2.62,12.26,12.26,0,0,1,3.54,4.62,16.28,16.28,0,0,1,1.27,6.74v1.54H383.44a11,11,0,0,0-1.39-6,5.11,5.11,0,0,0-4.62-2.12,7.71,7.71,0,0,0-3.08.54,5.19,5.19,0,0,0-2,1.42,4.9,4.9,0,0,0-1,2,10.42,10.42,0,0,0-.27,2.39,7.93,7.93,0,0,0,1.08,4.27q1.08,1.73,4.62,3.2l8.55,3.7a26.23,26.23,0,0,1,5.16,2.89,14.11,14.11,0,0,1,3.2,3.23,10.78,10.78,0,0,1,1.66,3.81,21.31,21.31,0,0,1,.46,4.62q0,8.7-5,12.67t-14.05,4q-9.4,0-13.44-4.08t-4-11.7v-2.23h11.09Z"/><path class="cls-2" d="M88.91,108.19a38.5,38.5,0,0,1,8.66.91,18.57,18.57,0,0,1,6.83,3,14,14,0,0,1,4.48,5.57,20.49,20.49,0,0,1,1.61,8.61,20.79,20.79,0,0,1-2,9.18,20.2,20.2,0,0,1-5.31,6.83,24,24,0,0,1-7.7,4.26A28.43,28.43,0,0,1,86.3,148H69.42l-4.7,22.27H51.15L64,108.19ZM85.6,137.42q5.22,0,8.22-2.65t3-8.22a8.08,8.08,0,0,0-.83-3.87,6,6,0,0,0-2.22-2.35,9.92,9.92,0,0,0-3.09-1.17,17.61,17.61,0,0,0-3.52-.35H75.51l-3.83,18.62Z"/><path class="cls-2" d="M115,129.94a37,37,0,0,1,6.74-12,31.82,31.82,0,0,1,24.84-11.27,36.16,36.16,0,0,1,11.4,1.7,22.17,22.17,0,0,1,14.22,13.44,31.14,31.14,0,0,1,2,11.48,47,47,0,0,1-2.26,14.62,37.79,37.79,0,0,1-6.57,12.27,31.08,31.08,0,0,1-10.61,8.4,32.56,32.56,0,0,1-14.49,3.09q-13.22,0-20.4-7t-7.18-20.36A43.57,43.57,0,0,1,115,129.94Zm12.14,20.45a15.21,15.21,0,0,0,2.52,5.09A12.09,12.09,0,0,0,134,159a14.38,14.38,0,0,0,6.39,1.3,16,16,0,0,0,8.79-2.39,21.22,21.22,0,0,0,6.26-6.18,28.7,28.7,0,0,0,3.78-8.4,34.24,34.24,0,0,0,1.26-9,25.26,25.26,0,0,0-.74-6.22,14,14,0,0,0-2.39-5.09,12,12,0,0,0-4.26-3.48,14.31,14.31,0,0,0-6.44-1.31,16.94,16.94,0,0,0-9.09,2.39,20.19,20.19,0,0,0-6.35,6.18,28.38,28.38,0,0,0-3.7,8.44,35.82,35.82,0,0,0-1.22,9.09A21.88,21.88,0,0,0,127.14,150.39Z"/><path class="cls-2" d="M235.5,108.19l-2.35,11.48H199.39L196.61,133h31.23l-2.26,10.61H194.35l-3.22,15.22h34.28L223,170.31H175.12l13-62.12Z"/><path class="cls-2" d="M239.85,119.68l2.44-11.48h51.85l-2.44,11.48H273.08l-10.61,50.63H248.72l10.61-50.63Z"/><path class="cls-2" d="M324.33,108.19l10.35,62.12H321.11l-2-13.83H295.88L288,170.31H273.69l36.63-62.12Zm-6.44,38.11-3-24.71h-.17l-13.4,24.71Z"/><path class="cls-2" d="M354.08,155.21a8.22,8.22,0,0,0,2.78,3.52,11.84,11.84,0,0,0,4.35,1.87,25,25,0,0,0,5.48.57,17.12,17.12,0,0,0,4.18-.52,13.35,13.35,0,0,0,3.79-1.57,8.83,8.83,0,0,0,2.78-2.7,7.12,7.12,0,0,0,1.09-4,5.09,5.09,0,0,0-1.39-3.7,12.2,12.2,0,0,0-3.61-2.48,31.76,31.76,0,0,0-5-1.83q-2.83-.78-5.7-1.65a48,48,0,0,1-5.74-2.09,19.64,19.64,0,0,1-5-3.13,14.39,14.39,0,0,1-3.57-4.7,15.46,15.46,0,0,1-1.35-6.79,17,17,0,0,1,2.18-8.87,18.21,18.21,0,0,1,5.65-6,25,25,0,0,1,7.87-3.39,37,37,0,0,1,8.92-1.09,36,36,0,0,1,9,1.09,20.37,20.37,0,0,1,7.39,3.52,17.46,17.46,0,0,1,5,6.22,20.55,20.55,0,0,1,1.87,9.18h-13a9.66,9.66,0,0,0-.74-4.39,7.5,7.5,0,0,0-2.35-2.91,9.58,9.58,0,0,0-3.61-1.61,19.92,19.92,0,0,0-4.44-.48,19.71,19.71,0,0,0-3.87.39,11.37,11.37,0,0,0-3.52,1.31,7.38,7.38,0,0,0-2.52,2.39,6.59,6.59,0,0,0-1,3.65,4.88,4.88,0,0,0,1.7,3.79,14.31,14.31,0,0,0,4.09,2.52,29.24,29.24,0,0,0,4.92,1.57l4.09.91a52.09,52.09,0,0,1,6.7,2.22,18.18,18.18,0,0,1,5.26,3.26,13.66,13.66,0,0,1,3.44,4.87,18.06,18.06,0,0,1,1.22,7,18.38,18.38,0,0,1-2.31,9.48,19.43,19.43,0,0,1-5.92,6.35,24.75,24.75,0,0,1-8.13,3.52,38.26,38.26,0,0,1-9,1.09q-13.05,0-19.45-5.31t-6.39-16.7h13A12.28,12.28,0,0,0,354.08,155.21Z"/></svg>